<svg width="751" height="138" viewBox="0 0 751 138" xmlns="http://www.w3.org/2000/svg">
  <g fill="none" fill-rule="evenodd">
    <path fill-opacity=".9" fill="#FF6620" d="M96.494 137.205L60.36 101.07l37.656-37.656 36.135 36.134z"/>
    <path fill-opacity=".5" fill="#006084" d="M36.373 74.553L.24 38.418 37.894.76 74.03 36.897z"/>
    <path fill-opacity=".9" fill="#00A485" d="M96.493 74.553L60.36 38.418 98.015.76l36.134 36.136z"/>
    <path fill-opacity=".7" fill="#002F2F" d="M36.373 137.205L.24 101.07l37.656-37.656L74.03 99.548z"/>
    <path d="M193.385 69.95V21.93h15.275c3.625 0 6.807.632 9.547 1.894 2.74 1.263 5.016 2.976 6.83 5.14 1.81 2.165 3.17 4.702 4.076 7.61.907 2.908 1.36 6.008 1.36 9.3 0 3.653-.507 6.956-1.52 9.91-1.015 2.953-2.472 5.478-4.37 7.574-1.9 2.097-4.197 3.72-6.894 4.87-2.698 1.15-5.707 1.725-9.03 1.725h-15.275zm33.787-24.078c0-3.02-.41-5.805-1.23-8.353-.82-2.55-2.017-4.747-3.592-6.596-1.575-1.85-3.506-3.29-5.793-4.33-2.287-1.036-4.92-1.554-7.897-1.554h-11.974v41.8h11.974c3.02 0 5.685-.53 7.994-1.59 2.308-1.06 4.24-2.536 5.793-4.43 1.553-1.894 2.73-4.115 3.527-6.662.798-2.548 1.198-5.31 1.198-8.286zm86.452 20.968v3.11h-30.616V21.93h30.033v3.112h-26.73v18.87h23.365v2.977H286.31V66.84h27.314zm50.658-44.912l17.54 43.694L399.3 21.928h3.494L383.312 69.95h-2.978L360.852 21.93h3.43zm120.95 3.112h-16.828v44.91h-3.3V25.04h-16.83v-3.112h36.96v3.112zm81.21 41.8v3.11h-30.615V21.93h30.033v3.112h-26.732v18.87h23.366v2.977h-23.366V66.84h27.314zm47.423 3.11l19.547-48.022h2.718l19.547 48.023h-3.56l-6.407-15.826h-21.942L617.36 69.95h-3.495zm20.906-43.828l-10.226 25.16h20.26l-10.033-25.16zm112.86 43.83V28.42L729.51 60.82h-2.07l-18.124-32.398v41.53h-3.3V21.927h3.3l19.158 34.36 19.16-34.36h3.3V69.95h-3.3z" fill="#002F2F"/>
    <path d="M535.168 122.178h-1.92l-8.612-12.406-2.994 2.764v9.642h-1.566V98.684h1.566v12.213l2.487-2.603 8.797-9.61h1.996l-9.197 9.93 9.442 13.564zm-34.57 0h-1.582v-21.952h-7.292v-1.542h16.167v1.542H500.6v21.952zm-22.626 0V98.684h1.566v23.494h-1.566zm-46.355 0h-1.566V98.684h12.3v1.51h-10.733v9.964h10.134v1.526h-10.133v10.494zm-18.464-8.258h-9.12l-3.132 8.258h-1.734l9.028-23.494h.997l6.572 17.457 2.273 6.038h-1.766l-3.117-8.258zm-8.568-1.568h8.03l-3.055-8.435c-.256-.66-.563-1.58-.92-2.753-.278 1.025-.58 1.953-.907 2.785l-3.148 8.402zm-50.53 9.826V98.684h1.565v21.952h10.702v1.542h-12.268zm-13.936 0H327.85V98.684h12.267v1.51h-10.702v8.887h10.102v1.512h-10.102v10.076h10.7v1.51zm-23.776-11.972c0 3.943-.987 6.924-2.963 8.943-1.974 2.02-4.876 3.028-8.704 3.028h-5.374V98.684h6.065c3.582 0 6.307.98 8.175 2.94 1.868 1.96 2.802 4.822 2.802 8.582zm-1.704.017c0-3.35-.816-5.87-2.45-7.562-1.63-1.69-4.03-2.536-7.192-2.536h-4.13v20.518h3.716c6.704 0 10.056-3.473 10.056-10.42zm-48.822 11.955h-1.58l-13.297-20.86h-.122c.123 2.487.184 4.362.184 5.626v15.234h-1.505V98.684h1.567l13.28 20.827h.092c-.092-1.928-.138-3.76-.138-5.495v-15.33h1.52v23.493zm-30.256 0h-12.267V98.684h12.267v1.51h-10.7v8.887h10.1v1.512h-10.1v10.076h10.7v1.51zM193.234 109.642h11.663v1.488h-11.663z" fill="#6F6F6F"/>
  </g>
</svg>
