<svg width="629" height="89" viewBox="0 0 629 89" xmlns="http://www.w3.org/2000/svg">
  <g fill="none" fill-rule="evenodd">
    <path fill-opacity=".9" fill="#FF6620" d="M64.042 88.083L40 64.04 64.042 40l24.04 24.04z"/>
    <path fill-opacity=".5" fill="#006084" d="M24.042 48.083L0 24.04 24.042 0l24.04 24.04z"/>
    <path fill-opacity=".9" fill="#00A485" d="M64.042 48.083L40 24.04 64.042 0l24.04 24.04z"/>
    <path fill-opacity=".7" fill="#002F2F" d="M24.042 88.083L0 64.04 24.042 40l24.04 24.04z"/>
    <path d="M258 44.66V14h10.163c2.412 0 4.53.403 6.352 1.21 1.823.805 3.338 1.9 4.543 3.28 1.206 1.383 2.11 3.002 2.713 4.86.604 1.856.906 3.835.906 5.937 0 2.33-.338 4.44-1.012 6.326-.675 1.885-1.644 3.498-2.907 4.836-1.263 1.338-2.792 2.374-4.586 3.108-1.794.735-3.796 1.102-6.007 1.102H258zm22.48-15.373c0-1.93-.273-3.707-.82-5.333-.544-1.627-1.34-3.03-2.39-4.21-1.047-1.18-2.33-2.102-3.853-2.764-1.522-.663-3.273-.994-5.254-.994h-7.967v26.687h7.967c2.01 0 3.783-.338 5.32-1.015 1.535-.676 2.82-1.62 3.853-2.828 1.033-1.21 1.816-2.627 2.347-4.254.53-1.626.797-3.39.797-5.29zM338 42.673v1.987h-20.37V14h19.98v1.986h-17.784v12.048h15.546v1.9h-15.546v12.74H338zM371.703 14l11.67 27.896L395.002 14h2.325l-12.962 30.66h-1.98L369.42 14h2.284zm80.472 1.986H440.98V44.66h-2.197V15.986h-11.196V14h24.59v1.986zm54.032 26.687v1.987h-20.37V14h19.982v1.986h-17.785v12.048h15.546v1.9h-15.545v12.74h18.173zm31.55 1.987L550.766 14h1.808l13.006 30.66h-2.37l-4.263-10.105h-14.6l-4.262 10.105h-2.326zm13.91-27.983l-6.803 16.064h13.48l-6.676-16.063zm75.09 27.983V18.146L614.702 38.83h-1.377l-12.058-20.684V44.66h-2.197V14h2.197l12.747 21.937L626.76 14h2.195v30.66h-2.196zM128 44.696V14h2.142v30.696H128zm39.505 0h-2.162v-28.68h-9.974V14h22.108v2.016h-9.973v28.68zm55.84 0h-2.624l-11.778-16.21-4.094 3.613v12.596h-2.142V14h2.142v15.957l3.4-3.4L220.28 14h2.73l-12.577 12.976 12.912 17.72z" fill="#002F2F"/>
    <path fill="#6F6F6F" d="M127.9 70h7.76v.95h-7.76zM156.356 78h-7.51V64.258h7.51v.884h-6.552v5.197h6.185v.883h-6.186v5.893h6.552V78zm22.357 0h-.968l-8.14-12.2h-.075c.075 1.453.112 2.55.112 3.29V78h-.92V64.258h.958l8.13 12.182h.057c-.057-1.128-.085-2.2-.085-3.215v-8.967h.93V78zm37.833-7.003c0 2.306-.604 4.05-1.814 5.23-1.21 1.182-2.986 1.773-5.33 1.773h-3.29V64.258h3.714c2.193 0 3.86.573 5.005 1.72s1.716 2.82 1.716 5.02zm-1.043.038c0-1.968-.5-3.448-1.5-4.44-1-.994-2.466-1.49-4.403-1.49h-2.528v12.05h2.274c4.105 0 6.157-2.04 6.157-6.12zM236.47 78h-7.51V64.258h7.51v.884h-6.552v5.197h6.184v.883h-6.184v5.893h6.55V78zm12.364 0V64.258h.96v12.84h6.55V78h-7.51zm40.005-4.85h-5.584L281.338 78h-1.062l5.527-13.798h.61L291.83 78h-1.08l-1.91-4.85zm-5.236-.865h4.916l-1.87-4.953c-.158-.39-.345-.928-.565-1.617-.17.602-.354 1.147-.554 1.635l-1.926 4.935zM303.987 78h-.96V64.258h7.53v.884h-6.57v5.827h6.203v.892h-6.203V78zm38.83-4.85h-5.583L335.316 78h-1.062l5.527-13.798h.612L345.806 78h-1.08l-1.91-4.85zm-5.236-.865h4.917l-1.87-4.953c-.157-.39-.345-.928-.564-1.617-.17.602-.354 1.147-.555 1.635l-1.927 4.935zm26.043.865h-5.583L356.122 78h-1.062l5.527-13.798h.61L366.613 78h-1.08l-1.91-4.85zm-5.236-.865h4.916l-1.87-4.953c-.157-.39-.345-.928-.564-1.617-.17.602-.355 1.147-.556 1.635l-1.927 4.935zm20.384-.272V78h-.958V64.258h3.27c1.705 0 2.965.315 3.78.945.814.63 1.22 1.577 1.22 2.843 0 .92-.242 1.698-.727 2.33-.486.634-1.224 1.088-2.214 1.364l3.733 6.26h-1.147l-3.543-5.987h-3.412zm0-.828h2.623c1.16 0 2.058-.258 2.698-.775.64-.517.96-1.28.96-2.29 0-1.045-.314-1.807-.94-2.283-.627-.476-1.65-.714-3.065-.714h-2.274v6.062zM408.46 78h-.97v-6.758h-8.026V78h-.96V64.258h.96v6.1h8.027v-6.1h.97V78zm23.25-13.742v8.892c0 1.58-.458 2.813-1.373 3.703-.915.89-2.19 1.335-3.826 1.335-1.59 0-2.833-.446-3.726-1.34-.893-.892-1.34-2.138-1.34-3.736v-8.854h.97v8.892c0 1.322.366 2.35 1.1 3.088.732.736 1.77 1.104 3.11 1.104 1.31 0 2.325-.362 3.045-1.086.72-.723 1.08-1.728 1.08-3.012v-8.986h.96zm20.58 10.198c0 1.147-.422 2.056-1.265 2.726-.843.67-1.963 1.006-3.36 1.006-1.68 0-2.967-.185-3.863-.555v-.958c.99.42 2.253.63 3.788.63 1.128 0 2.022-.26 2.683-.776.66-.518.992-1.196.992-2.036 0-.52-.11-.95-.33-1.292-.218-.342-.576-.654-1.07-.936-.496-.282-1.222-.586-2.18-.91-1.405-.484-2.375-1.006-2.91-1.566-.536-.56-.804-1.308-.804-2.242 0-1.028.404-1.866 1.21-2.514.804-.65 1.84-.973 3.105-.973 1.29 0 2.504.245 3.638.734l-.348.827c-1.14-.475-2.23-.713-3.27-.713-1.016 0-1.824.235-2.426.705-.602.47-.903 1.11-.903 1.917 0 .507.092.923.277 1.25.185.325.487.618.907.878.42.26 1.142.572 2.163.935 1.07.37 1.877.73 2.416 1.076.537.347.93.742 1.178 1.184.248.442.37.976.37 1.602zM487.94 78h-1.175l-5.273-7.256-1.832 1.616V78h-.96V64.258h.96v7.144l1.522-1.523 5.386-5.622h1.222l-5.63 5.81 5.78 7.932zm22.367-6.89c0 2.18-.546 3.906-1.637 5.175-1.09 1.27-2.594 1.903-4.51 1.903-1.913 0-3.413-.634-4.504-1.903-1.09-1.27-1.636-3-1.636-5.194 0-2.186.55-3.907 1.65-5.164 1.1-1.256 2.6-1.884 4.506-1.884 1.918 0 3.42.63 4.503 1.894 1.084 1.263 1.626 2.987 1.626 5.174zm-11.243 0c0 1.968.44 3.49 1.316 4.564.877 1.074 2.137 1.612 3.78 1.612 1.653 0 2.917-.533 3.79-1.598.875-1.066 1.312-2.59 1.312-4.578 0-1.98-.437-3.498-1.31-4.554-.875-1.056-2.133-1.584-3.775-1.584-1.635 0-2.896.533-3.783 1.598-.887 1.066-1.33 2.58-1.33 4.54zM528.765 78l-5.123-12.69h-.075c.05.778.075 1.574.075 2.388V78h-.92V64.258h1.484l4.87 12.088h.056l4.87-12.088h1.446V78h-.968V67.585c0-.726.037-1.478.113-2.255h-.076L529.377 78h-.612zm25.863 0l-5.123-12.69h-.075c.05.778.075 1.574.075 2.388V78h-.92V64.258h1.484l4.868 12.088h.057l4.868-12.088h1.448V78h-.967V67.585c0-.726.037-1.478.113-2.255h-.076L555.24 78h-.612zm29.924-13.742v8.892c0 1.58-.458 2.813-1.373 3.703-.916.89-2.19 1.335-3.826 1.335-1.592 0-2.834-.446-3.727-1.34-.893-.892-1.34-2.138-1.34-3.736v-8.854h.968v8.892c0 1.322.367 2.35 1.1 3.088.733.736 1.77 1.104 3.11 1.104 1.31 0 2.326-.362 3.047-1.086.72-.723 1.08-1.728 1.08-3.012v-8.986h.96zM607.538 78h-.968l-8.14-12.2h-.075c.075 1.453.113 2.55.113 3.29V78h-.92V64.258h.957l8.13 12.182h.057c-.056-1.128-.084-2.2-.084-3.215v-8.967h.93V78zm20.656 0h-7.51V64.258h7.51v.884h-6.55v5.197h6.183v.883h-6.184v5.893h6.55V78z"/>
  </g>
</svg>
